HIERARCHY
ROOT Hips
{
     OFFSET 55.93800 98.18250 49.34430
     CHANNELS 6 Xposition Yposition Zposition Zrotation Xrotation Yrotation
     JOINT Spine
     {
          OFFSET -0.00000 11.89050 0.00000
          CHANNELS 3 Zrotation Xrotation Yrotation
          JOINT Spine1
          {
               OFFSET 0.00000 25.65740 0.12766
               CHANNELS 3 Zrotation Xrotation Yrotation
               JOINT HEad
               {
                    OFFSET -0.00000 8.73416 0.01134
                    CHANNELS 3 Zrotation Xrotation Yrotation
                    End Site
                    {
                         OFFSET -0.29000 12.77420 2.51395
                    }
               }
               JOINT LeftShoulder1
               {
                    OFFSET 8.99000 -0.36225 -0.22000
                    CHANNELS 3 Zrotation Xrotation Yrotation
                    JOINT LeftArm
                    {
                         OFFSET 10.28270 -0.00338 0.32212
                         CHANNELS 3 Zrotation Xrotation Yrotation
                         JOINT LeftForeArm
                         {
                              OFFSET 32.76690 0.09914 -1.42434
                              CHANNELS 3 Zrotation Xrotation Yrotation
                              JOINT LeftHand
                              {
                                   OFFSET 27.56430 0.08536 1.02216
                                   CHANNELS 3 Zrotation Xrotation Yrotation
                                   End Site
                                   {
                                        OFFSET 16.74430 -0.60000 1.50291
                                   }
                              }
                         }
                    }
               }
               JOINT RightShoulder
               {
                    OFFSET -8.99000 -0.36225 -0.22000
                    CHANNELS 3 Zrotation Xrotation Yrotation
                    JOINT RightArm
                    {
                         OFFSET -10.28270 -0.00338 0.32212
                         CHANNELS 3 Zrotation Xrotation Yrotation
                         JOINT RightForeArm
                         {
                              OFFSET -32.89710 0.09914 -1.42434
                              CHANNELS 3 Zrotation Xrotation Yrotation
                              JOINT RightHand
                              {
                                   OFFSET -27.49210 0.08536 1.02216
                                   CHANNELS 3 Zrotation Xrotation Yrotation
                                   End Site
                                   {
                                        OFFSET -16.63120 -0.60000 1.50291
                                   }
                              }
                         }
                    }
               }
          }
     }
     JOINT LeftUpLeg
     {
          OFFSET 8.94580 -8.66707 0.10165
          CHANNELS 3 Zrotation Xrotation Yrotation
          JOINT LeftLeg
          {
               OFFSET -0.00000 -44.42270 1.37270
               CHANNELS 3 Zrotation Xrotation Yrotation
               JOINT LeftFoot
               {
                    OFFSET -0.25355 -42.09240 -1.46059
                    CHANNELS 3 Zrotation Xrotation Yrotation
                    JOINT LeftToes
                    {
                         OFFSET -0.04000 -4.41509 8.49910
                         CHANNELS 3 Zrotation Xrotation Yrotation
                         End Site
                         {
                              OFFSET 0.08000 -0.04745 9.77979
                         }
                    }
               }
          }
     }
     JOINT RightUpLeg
     {
          OFFSET -8.94580 -8.66707 0.10165
          CHANNELS 3 Zrotation Xrotation Yrotation
          JOINT RightLeg
          {
               OFFSET 0.00000 -44.42270 1.37270
               CHANNELS 3 Zrotation Xrotation Yrotation
               JOINT RightFoot
               {
                    OFFSET 0.25355 -42.09240 -1.46059
                    CHANNELS 3 Zrotation Xrotation Yrotation
                    JOINT RightToes
                    {
                         OFFSET 0.04000 -4.41509 8.49910
                         CHANNELS 3 Zrotation Xrotation Yrotation
                         End Site
                         {
                              OFFSET -0.08000 -0.13745 9.77979
                         }
                    }
               }
          }
     }
}
MOTION
Frames: 10
Frame Time: 0.01667
-0.83762 97.59790 -9.89417 0.79219 0.51477 -50.93350 4.89826 7.26851 -0.26011 13.56410 14.32960 -1.63905 -16.93230 -8.92880 21.32230 -0.00000 -0.00000 0.00000 -122.06600 -81.96980 -90.10520 -15.59120 52.44050 -111.97100 26.38940 5.09188 -16.71730 7.48407 0.67510 3.10938 56.82570 9.82247 70.31500 -1.42029 23.52740 104.41600 -7.01405 10.44420 -14.36050 10.37180 -17.27250 -12.81880 -12.28190 17.41400 50.08480 -19.55110 -0.11798 1.28459 9.86695 -7.89864 -62.06300 -21.43130 -17.32960 -38.03130 -0.15836 56.98300 16.00510 30.10890 5.67998 -3.65765 2.24883 -18.33760 34.36430 
-2.06416 97.46760 -10.81350 -0.47087 0.85197 -50.24770 4.47103 7.09133 -0.34697 12.88030 13.92790 -1.79567 -15.78780 -7.97245 22.55290 -0.00000 -0.00000 0.00000 -127.92400 -80.56450 -95.39800 -14.21000 52.19820 -112.92700 26.68440 5.19801 -16.02860 7.36734 0.64404 2.86947 56.81360 10.21980 71.46730 -2.47923 23.31580 105.09200 -6.55150 10.42770 -14.82790 11.66830 -16.91680 -14.10960 -11.30750 18.49890 50.76920 -19.77110 1.09008 1.50145 9.14068 -10.30090 -62.70640 -21.56260 -18.08100 -37.18310 -4.50108 59.73240 22.41420 31.78300 5.45608 -3.80452 2.14054 -18.23570 31.17980 
-3.29922 97.22170 -11.80130 -1.62201 1.02241 -49.46410 4.08307 6.97752 -0.36717 12.17320 13.66430 -1.81989 -14.96340 -7.23406 23.56830 -0.00000 -0.00000 0.00000 -131.33000 -78.97250 -98.10460 -13.19340 51.98180 -113.57800 27.03910 5.25316 -15.52120 7.06641 0.61146 2.67848 57.14910 10.48860 72.66570 -3.46278 23.26900 105.64600 -6.33583 10.43220 -15.32440 13.44330 -16.72760 -15.40540 -11.50790 19.53530 51.71760 -20.97120 2.31472 1.81344 8.53619 -12.31900 -63.61460 -21.72080 -18.66930 -36.01010 -10.08400 61.79630 26.95090 32.19970 4.24311 -3.51743 2.22054 -18.52860 29.81850 
-4.56066 96.88940 -12.80910 -2.57058 1.02824 -48.52440 3.67395 6.89363 -0.32004 11.43310 13.47830 -1.72941 -14.51790 -6.61954 24.31550 -0.00000 -0.00000 0.00000 -133.35400 -77.31140 -99.33250 -12.86630 51.95740 -113.61500 27.37440 5.24501 -15.30110 6.60389 0.58622 2.60965 57.82650 10.52790 73.72460 -4.11039 23.43250 105.94900 -6.44167 10.46660 -15.81480 15.48860 -16.54670 -16.16820 -12.57420 20.08910 52.07390 -21.74950 3.20170 2.04702 7.95165 -14.09440 -64.21460 -22.15650 -18.81250 -34.48040 -15.00870 62.92440 27.27970 31.62070 2.86516 -3.07548 2.42890 -19.02890 30.65070 
-5.84217 96.56280 -13.77340 -3.31293 0.94986 -47.36660 3.41514 6.78930 -0.25544 10.66990 13.27950 -1.56607 -14.45050 -5.89303 24.82190 -0.00000 -0.00000 0.00000 -134.34000 -75.67290 -99.53170 -13.15030 52.15890 -113.07000 27.63580 5.19349 -15.31700 6.03920 0.57514 2.72193 58.83890 10.29030 74.49990 -4.28705 23.85710 105.88300 -6.85704 10.53090 -16.24990 17.58220 -16.22490 -16.18460 -13.89650 19.92370 51.30050 -21.48210 3.62530 2.09794 7.39959 -15.58860 -64.15120 -22.96070 -18.28180 -32.67140 -17.34830 62.90220 22.39740 30.22480 1.76889 -2.65186 2.44267 -18.91060 32.76730 
-7.12596 96.31890 -14.66200 -3.87716 0.84926 -45.96300 3.47278 6.62324 -0.22132 9.89069 13.00350 -1.34885 -14.64690 -4.89633 25.13260 -0.00000 -0.00000 0.00000 -134.19501 -74.09060 -98.74750 -13.56750 52.43610 -112.31400 27.80640 5.14478 -15.38800 5.45669 0.57288 2.95054 60.13950 9.83905 74.95680 -4.00894 24.52900 105.41000 -7.44439 10.61200 -16.60250 19.45600 -15.75190 -15.66820 -14.87880 19.17510 49.43320 -20.55820 3.75621 2.02692 7.00333 -16.56350 -63.51090 -23.96210 -16.97020 -30.74300 -16.53930 61.31780 13.71410 27.86230 0.98657 -2.25774 1.99365 -17.70620 34.80680 
-8.41478 96.13540 -15.51550 -4.25696 0.72782 -44.37700 3.71153 6.39921 -0.19127 9.08303 12.64770 -1.05419 -14.90630 -3.71793 25.23020 -0.00000 -0.00000 0.00000 -133.02901 -72.53840 -97.22970 -13.57570 52.60600 -111.78900 27.88650 5.14581 -15.32470 4.93188 0.56905 3.15863 61.64350 9.27679 75.17340 -3.35734 25.38520 104.59600 -8.02891 10.69240 -16.89200 20.87180 -15.33030 -15.03990 -15.20510 18.32410 46.97080 -19.84000 3.83985 1.96737 6.83946 -16.88840 -62.66200 -24.81910 -14.93530 -28.80190 -13.80820 57.63790 4.55937 24.61410 0.58363 -1.91531 1.27052 -15.98050 36.03740 
-9.75163 95.88360 -16.43690 -4.41626 0.57670 -42.75460 3.72032 6.16444 -0.07254 8.22110 12.25440 -0.64242 -15.05770 -2.61887 25.06770 -0.00000 -0.00000 0.00000 -131.45100 -70.99540 -95.68960 -12.98080 52.62730 -111.66400 27.87380 5.21152 -15.06910 4.50447 0.55888 3.26026 63.25820 8.65462 75.29170 -2.45546 26.37210 103.61400 -8.53136 10.76530 -17.16210 21.80210 -15.29940 -14.70380 -14.98800 17.95720 44.62130 -19.97620 3.94750 1.99954 6.86884 -16.69450 -61.95160 -25.21450 -12.38890 -26.87270 -11.09050 51.72790 -1.83080 21.15970 0.92248 -1.71773 0.82159 -14.94320 36.46420 
-11.20330 95.40640 -17.52840 -4.34196 0.40025 -41.23360 3.10543 5.97094 0.20700 7.28692 11.87760 -0.10580 -15.02490 -1.85219 24.67400 -0.00000 -0.00000 0.00000 -130.18800 -69.50730 -94.91660 -12.05510 52.60600 -111.70800 27.78390 5.31053 -14.73360 4.15935 0.54381 3.26356 64.88940 7.98990 75.46220 -1.49696 27.40800 102.69500 -8.93369 10.82960 -17.43620 22.44840 -15.91520 -14.95010 -14.66980 18.44460 42.99110 -21.05410 3.97931 2.11753 6.98043 -16.29730 -61.50770 -25.01370 -9.60671 -24.99880 -9.52235 44.22310 -4.15197 18.46140 2.21955 -1.71062 1.06603 -15.50400 36.12440 
-12.80390 94.63150 -18.82110 -4.09934 0.21709 -39.85130 1.83740 5.83906 0.62094 6.31035 11.56150 0.50617 -14.79660 -1.56996 24.16980 -0.00000 -0.00000 0.00000 -129.75400 -68.14970 -95.44370 -11.30640 52.71720 -111.48700 27.67270 5.39145 -14.48410 3.82505 0.52728 3.24186 66.43980 7.33610 75.81810 -0.69630 28.32320 102.01100 -9.19741 10.87850 -17.69390 23.09620 -17.15880 -15.88260 -14.71430 19.69170 42.34500 -22.65060 3.89596 2.26900 7.04117 -16.07490 -61.25800 -24.30340 -6.85504 -23.29270 -9.12563 36.45050 -3.14560 17.39850 3.89011 -1.85951 1.89115 -17.45870 34.89020 
